<?xml version="1.0" encoding="UTF-8"?>
<svg width="450px" height="450px" viewBox="0 0 450 450" version="1.1" xmlns="http://www.w3.org/2000/svg" xmlns:xlink="http://www.w3.org/1999/xlink">
    <title>icon</title>
    <defs>
        <circle id="path-1" cx="225" cy="225" r="140"></circle>
    </defs>
    <g id="outline" stroke="none" stroke-width="1" fill="none" fill-rule="evenodd">
        <g id="icon">
            <circle id="Oval" stroke="#843075" stroke-width="20" cx="225" cy="225" r="215"></circle>
            <mask id="mask-2" fill="white">
                <use xlink:href="#path-1"></use>
            </mask>
            <g id="oval-clippong"></g>
            <g id="horse-head-solid" mask="url(#mask-2)" fill-rule="nonzero" stroke="#843075" stroke-width="20">
                <g transform="translate(115.000000, 115.000000)" id="Shape">
                    <path d="M119.334799,161.002508 C123.408726,160.555788 127.316892,159.591792 131.026158,158.207214 L145.921988,178.901421 C150.379021,185.130177 157.568871,188.78789 165.219581,188.78789 L186.833482,188.78789 C193.020052,188.78789 198.927224,186.371475 203.355373,182.075872 L222.857099,164.940285 C226.30662,161.536263 228.566794,157.253108 229.505279,152.70565 C230.431059,148.219758 230.071075,143.479503 228.314628,139.068539 L198.3304,68.583924 C192.791557,53.4822835 181.826662,41.3982544 167.994965,34.2838824 C169.573413,32.062387 170.98927,29.5902736 172.125375,26.8560539 C175.028419,19.8694126 176.250574,11.1267249 173.435054,0.328999325 C172.429922,-3.537271 169.775798,-6.69765499 166.300332,-8.46451748 C162.908281,-10.188973 158.829216,-10.5187376 155.115463,-9.1417347 L68.2705728,23.3744864 C39.2248716,33.8340955 20.1400711,51.4711497 7.98661083,74.9574386 C-5.15590189,100.355049 -10,132.976472 -10,171.35338 L-10,206.248305 C-10,212.817025 -7.34275705,218.752463 -3.04833758,223.047288 C1.24642379,227.342456 7.18181736,230 13.7503943,230 L115.245492,230 C124.081878,230 131.373068,225.351701 135.461667,218.73212 C139.544358,212.122103 140.440566,203.542712 136.485492,195.643458 L119.334799,161.002508 Z"></path>
                </g>
            </g>
        </g>
    </g>
</svg>